<svg xmlns="http://www.w3.org/2000/svg" width="167.691" height="154.762" viewBox="0 0 167.691 154.762"><defs><style>.a{fill:#fff;}</style></defs><path class="a" d="M99.749,36.575H90.681V9.068H54.409V0H27.2V9.068H9.068V36.575H0V154.762H99.749Zm-18.136,0H72.545V18.136h9.068Zm-27.2-18.438h9.068V36.575H54.409ZM69.743,45.643l-4.534,9.068H34.54l-4.534-9.068ZM45.34,9.068V36.575H36.272V9.068Zm-27.2,9.068H27.2V36.575H18.136Zm1.732,27.507,9.068,18.136H70.813l9.068-18.136h10.8V96.578L49.874,72.094,9.068,96.578V45.643Zm-10.8,61.51L49.874,82.668l40.806,24.484v20.406H9.068Zm0,38.542v-9.068H90.681v9.068Zm0,0"/><g transform="translate(111.93 89.243)"><path class="a" d="M90.551,58.186c-.732-1.789-1.477-3.578-2.291-5.34a2.527,2.527,0,0,0-3.361-1.64c-2.182.5-4.324,1.166-6.506,1.613a24.545,24.545,0,0,1-12.605-.352c-5.218-1.64-8-5.422-9.7-10.3h14.15a2,2,0,0,0,2.006-2.006V35.7a2,2,0,0,0-2.006-2.006H54.728c0-1.247-.014-2.44,0-3.633H70.234a2,2,0,0,0,2.006-2.006V23.6a2,2,0,0,0-2.006-2.006H56.68a.2.2,0,0,1,.027-.136c1.626-3.7,4-6.669,7.888-8.214a23.674,23.674,0,0,1,13.812-.786c2.209.447,4.378,1.125,6.587,1.626a2.484,2.484,0,0,0,3.239-1.613c.8-1.735,1.532-3.5,2.264-5.273A2.665,2.665,0,0,0,89.21,3.428a8.378,8.378,0,0,0-1.22-.583A38.212,38.212,0,0,0,67.767.459,28.876,28.876,0,0,0,54.362,5.99,29.379,29.379,0,0,0,44.291,20.9l-.23.691H37.094A2,2,0,0,0,35.088,23.6v4.459a2,2,0,0,0,2.006,2.006h5.489v3.633H37.094A2,2,0,0,0,35.088,35.7v4.459a2,2,0,0,0,2.006,2.006h6.614c.5,1.626.922,3.28,1.559,4.839,3.348,8.078,8.959,13.825,17.4,16.563a35.941,35.941,0,0,0,21.05.258A34.988,34.988,0,0,0,89.1,61.873,2.568,2.568,0,0,0,90.551,58.186Z" transform="translate(-35.088 0)"/></g></svg>