<svg xmlns="http://www.w3.org/2000/svg" width="136.174" height="160.61" viewBox="0 0 136.174 160.61"><defs><style>.a{fill:#fff;}</style></defs><path class="a" d="M70.174,160.61a.974.974,0,0,1-.72-.325L39.833,130.8a1.058,1.058,0,0,1,.745-1.8H59.364V72.963L16.722,30.36,3.7,43.374a1.066,1.066,0,0,1-1.153.248,1.1,1.1,0,0,1-.624-.975L1.956,1.128A1.047,1.047,0,0,1,2.988.083L44.541,0h0A1.046,1.046,0,0,1,45.5.637a1.118,1.118,0,0,1-.21,1.172L32.074,15,69.887,52.821l37.845-37.845L94.705,1.924A1.029,1.029,0,0,1,94.482.79a1.047,1.047,0,0,1,.968-.637h0l41.5.038a1.02,1.02,0,0,1,1.032,1.032l.115,41.533a1.066,1.066,0,0,1-1.809.745l-13.2-13.2L81.194,72.218v56.8H99.731a1.058,1.058,0,0,1,.956.662,1,1,0,0,1-.236,1.134L70.926,160.3A1.094,1.094,0,0,1,70.174,160.61Z" transform="translate(-1.918)"/></svg>