<svg xmlns="http://www.w3.org/2000/svg" width="181.567" height="181.567" viewBox="0 0 181.567 181.567"><path d="M40.56,28.8a7.8,7.8,0,1,0,7.8,7.8A7.81,7.81,0,0,0,40.56,28.8Zm0,10.292A2.491,2.491,0,1,1,43.05,36.6,2.495,2.495,0,0,1,40.56,39.089Zm0,0" transform="translate(-21.141 -18.585)"/><path d="M96.61,28.8a7.8,7.8,0,1,0,7.8,7.8A7.81,7.81,0,0,0,96.61,28.8Zm0,10.292A2.491,2.491,0,1,1,99.1,36.6,2.495,2.495,0,0,1,96.61,39.089Zm0,0" transform="translate(-57.315 -18.585)"/><path d="M152.661,28.8a7.8,7.8,0,1,0,7.8,7.8A7.81,7.81,0,0,0,152.661,28.8Zm0,10.292a2.491,2.491,0,1,1,2.491-2.491A2.495,2.495,0,0,1,152.661,39.089Zm0,0" transform="translate(-93.489 -18.585)"/><path d="M94.825,137.332h-44.9a2.655,2.655,0,1,0,0,5.31h44.9a2.655,2.655,0,1,0,0-5.31Zm0,0" transform="translate(-30.507 -88.631)"/><path d="M94.825,172.52h-44.9a2.655,2.655,0,1,0,0,5.31h44.9a2.655,2.655,0,1,0,0-5.31Zm0,0" transform="translate(-30.507 -111.34)"/><path d="M94.825,207.7h-44.9a2.655,2.655,0,1,0,0,5.31h44.9a2.655,2.655,0,1,0,0-5.31Zm0,0" transform="translate(-30.507 -134.047)"/><path d="M94.825,242.891h-44.9a2.655,2.655,0,1,0,0,5.31h44.9a2.655,2.655,0,1,0,0-5.31Zm0,0" transform="translate(-30.507 -156.756)"/><path d="M94.825,278.078h-44.9a2.655,2.655,0,1,0,0,5.31h44.9a2.655,2.655,0,1,0,0-5.31Zm0,0" transform="translate(-30.507 -179.465)"/><path d="M94.825,313.266h-44.9a2.655,2.655,0,1,0,0,5.31h44.9a2.655,2.655,0,1,0,0-5.31Zm0,0" transform="translate(-30.507 -202.174)"/><path d="M94.825,348.449h-44.9a2.655,2.655,0,1,0,0,5.31h44.9a2.655,2.655,0,1,0,0-5.31Zm0,0" transform="translate(-30.507 -224.881)"/><path d="M94.825,383.637h-44.9a2.655,2.655,0,1,0,0,5.31h44.9a2.655,2.655,0,1,0,0-5.31Zm0,0" transform="translate(-30.507 -247.59)"/><path d="M94.825,418.824h-44.9a2.655,2.655,0,1,0,0,5.31h44.9a2.655,2.655,0,1,0,0-5.31Zm0,0" transform="translate(-30.507 -270.3)"/><path d="M94.825,454.008h-44.9a2.655,2.655,0,1,0,0,5.31h44.9a2.655,2.655,0,1,0,0-5.31Zm0,0" transform="translate(-30.507 -293.006)"/><path d="M217.438,127.8V248.743a2.655,2.655,0,0,0,5.31,0V127.8a2.655,2.655,0,1,0-5.31,0Zm0,0" transform="translate(-140.329 -80.763)"/><path d="M169.864,0H11.7A11.716,11.716,0,0,0,0,11.7V169.864a11.716,11.716,0,0,0,11.7,11.7H90.783a2.655,2.655,0,1,0,0-5.31H11.7a6.4,6.4,0,0,1-6.393-6.393V36.177H176.257V169.864a6.4,6.4,0,0,1-6.393,6.393h-62.7a2.655,2.655,0,0,0,0,5.31h62.7a11.716,11.716,0,0,0,11.7-11.7V11.7A11.716,11.716,0,0,0,169.864,0Zm6.393,30.867H5.31V11.7A6.4,6.4,0,0,1,11.7,5.31H169.864a6.4,6.4,0,0,1,6.393,6.393Zm0,0"/><path d="M304.542,28.8H289.058a2.655,2.655,0,0,0,0,5.31h15.484a2.665,2.665,0,0,1,0,5.329H234.018a2.665,2.665,0,1,1,0-5.329h38.521a2.655,2.655,0,0,0,0-5.31H234.018a7.974,7.974,0,1,0,0,15.948h70.524a7.974,7.974,0,0,0,0-15.948Zm0,0" transform="translate(-145.883 -18.585)"/><path d="M335.021,142.823a5.5,5.5,0,0,0-5.491-5.491H265.765a5.5,5.5,0,0,0-5.491,5.491v24.015a5.5,5.5,0,0,0,5.491,5.491H329.53a5.5,5.5,0,0,0,5.491-5.491Zm-59.147,24.2,14.272-14.267,11.139,12.554a2.655,2.655,0,0,0,4.139-3.316l5.311-5.31,9.173,10.338Zm53.838-.181a.182.182,0,0,1-.181.181h-2.523l-12.672-14.281a4.783,4.783,0,0,0-6.958-.208L301.9,158l-8.156-9.192a4.785,4.785,0,0,0-6.959-.208l-18.425,18.417h-2.6a.181.181,0,0,1-.181-.181V142.823a.181.181,0,0,1,.181-.181H329.53a.182.182,0,0,1,.181.181Zm0,0" transform="translate(-167.975 -88.631)"/><path d="M262.928,268.778h12.729a2.655,2.655,0,0,0,0-5.31H262.928a2.655,2.655,0,0,0,0,5.31Zm0,0" transform="translate(-167.975 -170.037)"/><path d="M349.639,266.124a2.655,2.655,0,0,0-2.654-2.656H323.909a2.655,2.655,0,1,0,0,5.31h23.075A2.654,2.654,0,0,0,349.639,266.124Zm0,0" transform="translate(-207.33 -170.037)"/><path d="M433.18,263.469H419.136a2.655,2.655,0,1,0,0,5.31H433.18a2.655,2.655,0,0,0,0-5.31Zm0,0" transform="translate(-268.787 -170.037)"/><path d="M262.928,297.255h16.128a2.655,2.655,0,0,0,0-5.31H262.928a2.655,2.655,0,0,0,0,5.31Zm0,0" transform="translate(-167.975 -188.415)"/><path d="M337.463,297.255h27.328a2.655,2.655,0,0,0,0-5.31H337.463a2.655,2.655,0,0,0,0,5.31Zm0,0" transform="translate(-216.078 -188.415)"/><path d="M447.325,291.941h-6.272a2.655,2.655,0,0,0,0,5.31h6.272a2.655,2.655,0,0,0,0-5.31Zm0,0" transform="translate(-282.932 -188.412)"/><path d="M335.021,374.87V333.507a5.5,5.5,0,0,0-5.491-5.491H265.765a5.5,5.5,0,0,0-5.491,5.491V374.87a5.5,5.5,0,0,0,5.491,5.491H329.53A5.5,5.5,0,0,0,335.021,374.87Zm-69.438,0V333.507a.181.181,0,0,1,.181-.181H329.53a.181.181,0,0,1,.181.181V374.87a.182.182,0,0,1-.181.181H265.765A.182.182,0,0,1,265.583,374.87Zm0,0" transform="translate(-167.975 -211.694)"/><path d="M353.4,373.956l-13.376-7.723a5.137,5.137,0,0,0-7.7,4.447v15.447a5.125,5.125,0,0,0,7.7,4.447l13.376-7.723a5.135,5.135,0,0,0,0-8.895Zm-15.77,11.867V370.982l12.854,7.422Zm0,0" transform="translate(-214.472 -235.909)"/></svg>