<svg xmlns="http://www.w3.org/2000/svg" width="121.547" height="210.164" viewBox="0 0 121.547 210.164"><g transform="translate(-107.944)"><path d="M214.874,14.836a14.535,14.535,0,0,0-8.47,2.715,14.606,14.606,0,0,0-24.893-10,14.609,14.609,0,0,0-25.883.568,14.607,14.607,0,0,0-24.605,10.659V44.876h-8.46a14.635,14.635,0,0,0-14.617,14.617v3.6a3.079,3.079,0,1,0,6.157,0v-3.6a8.471,8.471,0,0,1,8.46-8.46h39.01a8.46,8.46,0,1,1,0,16.92H135.886a3.079,3.079,0,0,0,0,6.157,12.444,12.444,0,1,1,0,24.889,3.079,3.079,0,1,0,0,6.157A18.592,18.592,0,0,0,149.7,74.111h11.872a14.612,14.612,0,0,0,7.345-27.247A14.569,14.569,0,0,0,179,42.627a14.594,14.594,0,0,0,21.263,4.84A14.6,14.6,0,0,0,223.333,59v17.4a54.586,54.586,0,0,1-13.359,35.789,24.815,24.815,0,0,0-5.984,16.3v35.71a3.079,3.079,0,0,0,6.157,0l0-35.709a18.66,18.66,0,0,1,4.475-12.261A60.744,60.744,0,0,0,229.491,76.4V29.453A14.634,14.634,0,0,0,214.874,14.836ZM158.73,42.911a14.717,14.717,0,0,0,2.634,1.966h-3.816A14.56,14.56,0,0,0,158.73,42.911ZM145.639,10.322a8.47,8.47,0,0,1,8.46,8.46V36.416a8.46,8.46,0,1,1-16.921,0V18.782A8.47,8.47,0,0,1,145.639,10.322Zm23.078,30.39a8.47,8.47,0,0,1-8.46-8.46V14.618a8.46,8.46,0,1,1,16.921,0V32.252A8.47,8.47,0,0,1,168.717,40.712ZM191.8,44.026a8.47,8.47,0,0,1-8.46-8.46V17.931a8.46,8.46,0,0,1,16.921,0V35.565A8.47,8.47,0,0,1,191.8,44.026Zm23.078,11.522a8.47,8.47,0,0,1-8.46-8.46V29.453a8.46,8.46,0,0,1,16.921,0V47.087A8.469,8.469,0,0,1,214.874,55.547Z" transform="translate(0)"/><path d="M207.069,280.775a3.078,3.078,0,0,0-3.079,3.079V309.3H133.446l0-75.526a24.811,24.811,0,0,0-5.984-16.3,54.587,54.587,0,0,1-13.359-35.77v-.02a3.079,3.079,0,0,0-6.157,0h0a61,61,0,0,0,14.867,39.825,18.656,18.656,0,0,1,4.475,12.26l0,78.6a3.078,3.078,0,0,0,3.079,3.079h76.7a3.078,3.078,0,0,0,3.079-3.079V283.853A3.078,3.078,0,0,0,207.069,280.775Z" transform="translate(0 -105.297)"/><path d="M242.1,346.084a31.871,31.871,0,1,0-31.871,31.871A31.907,31.907,0,0,0,242.1,346.084Zm-57.584,0A25.713,25.713,0,1,1,210.228,371.8,25.743,25.743,0,0,1,184.514,346.084Z" transform="translate(-41.51 -185.236)"/><path d="M246.932,362a20.709,20.709,0,0,0-1.386-7.477,3.079,3.079,0,1,0-5.745,2.215,14.615,14.615,0,1,1-8.4-8.4,3.079,3.079,0,0,0,2.215-5.745A20.791,20.791,0,1,0,246.932,362Z" transform="translate(-57.427 -201.152)"/><circle cx="3.077" cy="3.077" r="3.077" transform="translate(165.517 149.187)"/><circle cx="3.077" cy="3.077" r="3.077" transform="translate(165.517 166.355)"/><circle cx="3.077" cy="3.077" r="3.077" transform="translate(157.058 157.647)"/><circle cx="3.077" cy="3.077" r="3.077" transform="translate(174.224 157.647)"/></g></svg>