<svg xmlns="http://www.w3.org/2000/svg" width="160.351" height="160.417" viewBox="0 0 160.351 160.417"><defs><style>.a{fill:#fff;}</style></defs><path class="a" d="M112.782,94.339v-.352h22.884L112.782,59.661V51.684h-.2A56.222,56.222,0,0,0,91.519,12.262,56.839,56.839,0,0,0,44.1,1.281,56.2,56.2,0,0,0,1,45.5,57.179,57.179,0,0,0,7.425,84.407C21,108.039,28.24,132.68,28.24,155.669v4.749H84.581v-23.28l28.2,4.7V120.109l6.192-6.707,30.12,8.605,2.582-9.038-31.42-8.977Zm-9.337-9.753V97.551l7.887,10.27-7.887,8.612v14.307l-47.066-7.834V93.986h-4.7a14.116,14.116,0,0,1-14.1-14.1c0-7.545,6.073-13.475,12.4-13.475h6.4v-9.4h-6.4c-11.915,0-21.737,10.336-21.737,22.876a23.542,23.542,0,0,0,18.8,23.029V130.87l28.2,4.7v15.447H37.487c-.89-23.267-8.42-47.809-21.911-71.292A47,47,0,0,1,46.051,10.477a47.47,47.47,0,0,1,39.607,9.135,46.93,46.93,0,0,1,17.781,36.01h.006v6.886L118.1,84.587H103.445Zm0,0" transform="translate(0 -0.001)"/><path class="a" d="M462.01,183.543l-5.214,7.822a6.6,6.6,0,0,1,0,10.979,16,16,0,0,0,0,26.623l5.214-7.822a6.6,6.6,0,0,1,0-10.979,16,16,0,0,0,0-26.623Zm0,0" transform="translate(-308.783 -126.037)"/><path class="a" d="M150.141,239.965h9.338v9.4h-9.338Zm0,0" transform="translate(-103.099 -164.781)"/></svg>