<svg xmlns="http://www.w3.org/2000/svg" width="142.369" height="210.164" viewBox="0 0 142.369 210.164"><path d="M126.145,134.519,91.523,122.976v-7.023a37.4,37.4,0,0,0,15.555-21.244A16.911,16.911,0,0,0,122.03,77.964V50.846a50.846,50.846,0,0,0-101.692,0V77.964A16.911,16.911,0,0,0,35.291,94.709a37.37,37.37,0,0,0,15.555,21.244v7.023l-34.622,11.54A23.707,23.707,0,0,0,0,157.03v53.133H142.369V157.03A23.7,23.7,0,0,0,126.145,134.519Zm-22.454-.339-9.866,19.739L76.5,139.07l12.316-9.85ZM67.277,169.487h7.816l5.651,33.9H61.626Zm7.912-6.779h-8l-2.7-13.518,6.7-5.747,6.7,5.747Zm4.49-72.442L71.184,83.9,62.69,90.265l2.067-10.341-9.2-6.9,11.315-2.261,4.315-10.79L75.5,70.757l11.315,2.261-9.2,6.9Zm-39-21.183V61.015h22.79L61.94,64.829Zm39.755-4.254L78.9,61.015h22.79v8.067Zm27.9,22.725c.071-.932.142-1.862.142-2.81V68.419a10.107,10.107,0,0,1-.142,19.135ZM71.184,6.779a44.118,44.118,0,0,1,44.067,44.067V64.493a16.78,16.78,0,0,0-6.779-3.132V54.236H76.191L71.184,41.721,66.178,54.236H33.9v7.122a16.824,16.824,0,0,0-6.779,3.132V50.846A44.118,44.118,0,0,1,71.184,6.779ZM27.118,77.964A10.155,10.155,0,0,1,33.9,68.419V84.743c0,.948.071,1.879.142,2.81A10.152,10.152,0,0,1,27.118,77.964Zm13.559,6.779V70.337l16.6,12.447L52.561,106.34,71.184,92.37,89.808,106.34,85.1,82.784l16.6-12.447V84.743a30.508,30.508,0,0,1-61.015,0ZM71.184,122.03a37.021,37.021,0,0,0,13.559-2.59v4.35L71.184,134.638,57.625,123.79v-4.35A37.021,37.021,0,0,0,71.184,122.03Zm-17.627,7.19,12.316,9.85L48.547,153.918l-9.866-19.739ZM6.779,157.03a16.93,16.93,0,0,1,11.589-16.081l13.811-4.6,14.186,28.371,12.212-10.467,2.38,11.9-6.2,37.232H30.508V166.1H23.728v37.287H6.779Zm128.81,46.354H118.641V166.1h-6.779v37.287H87.615l-6.207-37.236,2.378-11.9L96,164.713l14.186-28.371,13.811,4.6a16.936,16.936,0,0,1,11.593,16.085Zm0,0"/></svg>